HIERARCHY
ROOT Hips
{
	OFFSET 0.000000 0.000000 0.000000
	CHANNELS 6 Xposition Yposition Zposition Xrotation Yrotation Zrotation
	JOINT LeftUpLeg_virtual
	{
		OFFSET 0.000000 0.000000 0.000000
		CHANNELS 3 Xrotation Yrotation Zrotation
		JOINT LeftUpLeg
		{
			OFFSET 10.205400 -3.823500 0.155100
			CHANNELS 3 Xrotation Yrotation Zrotation
			JOINT LeftLeg
			{
				OFFSET 0.708757 -12.982077 0.567790
				CHANNELS 3 Xrotation Yrotation Zrotation
				JOINT LeftFoot
				{
					OFFSET -0.708756 -10.717838 -2.184338
					CHANNELS 3 Xrotation Yrotation Zrotation
					JOINT LeftToeBase
					{
						OFFSET 0.108149 -7.191104 7.560241
						CHANNELS 3 Xrotation Yrotation Zrotation
						JOINT LeftToe_End
						{
							OFFSET 0.070230 0.081724 4.490308
							CHANNELS 3 Xrotation Yrotation Zrotation
							End Site
							{
								OFFSET 0 0 0
							}
						}
					}
				}
			}
		}
	}
	JOINT RightUpLeg_virtual
	{
		OFFSET 0.000000 0.000000 0.000000
		CHANNELS 3 Xrotation Yrotation Zrotation
		JOINT RightUpLeg
		{
			OFFSET -10.205400 -3.823500 0.005500
			CHANNELS 3 Xrotation Yrotation Zrotation
			JOINT RightLeg
			{
				OFFSET -0.708756 -12.982134 0.610632
				CHANNELS 3 Xrotation Yrotation Zrotation
				JOINT RightFoot
				{
					OFFSET 0.708754 -10.717769 -1.945823
					CHANNELS 3 Xrotation Yrotation Zrotation
					JOINT RightToeBase
					{
						OFFSET -0.108140 -7.191069 7.372968
						CHANNELS 3 Xrotation Yrotation Zrotation
						JOINT RightToe_End
						{
							OFFSET -0.070227 0.081735 4.479403
							CHANNELS 3 Xrotation Yrotation Zrotation
							End Site
							{
								OFFSET 0 0 0
							}
						}
					}
				}
			}
		}
	}
	JOINT Spine_virtual
	{
		OFFSET 0.000000 0.000000 0.000000
		CHANNELS 3 Xrotation Yrotation Zrotation
		JOINT Spine
		{
			OFFSET 0.000000 6.876099 0.125700
			CHANNELS 3 Xrotation Yrotation Zrotation
			JOINT Spine1
			{
				OFFSET 0.000000 5.730043 0.104720
				CHANNELS 3 Xrotation Yrotation Zrotation
				JOINT Spine1_split
				{
					OFFSET 0.000000 5.730043 0.104720
					CHANNELS 3 Xrotation Yrotation Zrotation
					JOINT Spine2
					{
						OFFSET 0.000000 5.730043 0.104720
						CHANNELS 3 Xrotation Yrotation Zrotation
						JOINT Neck_virtual
						{
							OFFSET 0.000000 0.000000 0.000000
							CHANNELS 3 Xrotation Yrotation Zrotation
							JOINT Neck
							{
								OFFSET 0.000000 10.314075 0.188496
								CHANNELS 3 Xrotation Yrotation Zrotation
								JOINT Head
								{
									OFFSET 0.000000 7.643700 -2.377400
									CHANNELS 3 Xrotation Yrotation Zrotation
									JOINT HeadTop_End
									{
										OFFSET 0.000000 43.788605 -13.619600
										CHANNELS 3 Xrotation Yrotation Zrotation
										End Site
										{
											OFFSET 0 0 0
										}
									}
								}
							}
						}
						JOINT LeftShoulder_virtual
						{
							OFFSET 0.000000 0.000000 0.000000
							CHANNELS 3 Xrotation Yrotation Zrotation
							JOINT LeftShoulder
							{
								OFFSET 2.196100 4.412489 0.087492
								CHANNELS 3 Xrotation Yrotation Zrotation
								JOINT LeftShoulder_split
								{
									OFFSET 2.196100 4.412489 0.087492
									CHANNELS 3 Xrotation Yrotation Zrotation
									JOINT LeftArm
									{
										OFFSET 8.771219 -2.981674 -0.026999
										CHANNELS 3 Xrotation Yrotation Zrotation
										JOINT LeftForeArm
										{
											OFFSET 8.512804 0.000000 -0.000000
											CHANNELS 3 Xrotation Yrotation Zrotation
											JOINT LeftHand
											{
												OFFSET 18.484802 0.000000 -0.000000
												CHANNELS 3 Xrotation Yrotation Zrotation
												End Site
												{
													OFFSET 0 0 0
												}
											}
										}
									}
								}
							}
						}
						JOINT RightShoulder_virtual
						{
							OFFSET 0.000000 0.000000 0.000000
							CHANNELS 3 Xrotation Yrotation Zrotation
							JOINT RightShoulder
							{
								OFFSET -2.196100 4.412496 0.070690
								CHANNELS 3 Xrotation Yrotation Zrotation
								JOINT RightShoulder_split
								{
									OFFSET -2.196100 4.412496 0.070690
									CHANNELS 3 Xrotation Yrotation Zrotation
									JOINT RightArm
									{
										OFFSET -8.771282 -2.981682 -0.094208
										CHANNELS 3 Xrotation Yrotation Zrotation
										JOINT RightForeArm
										{
											OFFSET -8.494598 0.000000 0.000000
											CHANNELS 3 Xrotation Yrotation Zrotation
											JOINT RightHand
											{
												OFFSET -18.483803 0.000000 0.000001
												CHANNELS 3 Xrotation Yrotation Zrotation
												End Site
												{
													OFFSET 0 0 0
												}
											}
										}
									}
								}
							}
						}
					}
				}
			}
		}
	}
}
MOTION
Frames: 10
Frame Time: 0.03333333
-0.562433 5.347931 9.824960 0.000000 0.000000 0.000000 -87.840631 -2.647163 1.119665 -28.571021 18.254734 -8.459912 38.448866 -3.231142 -4.737307 -2.396842 5.810879 13.776669 8.527499 -0.380074 3.046131 0.000000 0.000000 0.000000 -90.066091 -2.462361 -1.084568 -10.255621 -6.397086 -4.387419 8.994799 -2.005309 3.375136 14.019581 -1.827396 18.701550 -4.060506 -1.123024 -0.849279 0.000000 0.000000 0.000000 -86.030235 -3.287445 -1.487768 3.612999 2.600479 -2.324272 -1.413236 1.051294 -0.275573 0.510694 1.041157 -0.436079 0.000000 0.000000 0.000000 -2.452845 0.484286 0.100105 2.430127 1.375110 0.183866 7.433034 1.515562 12.551701 0.000000 0.000000 0.000000 -2.992077 1.148403 0.036485 1.150641 -15.866550 -2.452751 -3.173036 0.224763 -4.084721 29.023369 0.759284 -71.016523 -178.831769 -39.644470 -178.509262 0.000000 0.000000 0.000000 -2.058423 0.830742 -0.861200 1.362721 2.542816 0.291337 1.164926 4.422316 0.138014 13.791457 5.460138 72.112372 -179.596163 46.957947 -179.071140 0.000000 0.000000 0.000000 
-0.560981 5.346403 9.833158 0.000000 0.000000 0.000000 -87.847537 -2.640574 1.130967 -28.595506 18.243616 -8.459620 38.525825 -3.231823 -4.763306 -2.432706 5.775204 13.818305 8.523699 -0.382760 3.049127 0.000000 0.000000 0.000000 -90.066317 -2.446606 -1.063122 -10.271263 -6.399558 -4.413554 9.089290 -2.001334 3.388775 13.975707 -1.825002 18.726439 -3.998989 -1.123106 -0.848820 0.000000 0.000000 0.000000 -86.039982 -3.280633 -1.475317 3.617240 2.592535 -2.321044 -1.415362 1.049983 -0.279456 0.518566 1.042283 -0.431678 0.000000 0.000000 0.000000 -2.458743 0.486815 0.099501 2.473077 1.382908 0.175608 7.479490 0.931610 12.628083 0.000000 0.000000 0.000000 -2.991611 1.147642 0.040585 1.154240 -15.875427 -2.441868 -3.172924 0.249339 -4.101984 29.012482 0.854690 -71.039261 -178.815199 -39.496778 -178.473376 0.000000 0.000000 0.000000 -2.075926 0.824105 -0.860127 1.363352 2.605219 0.283141 1.154259 4.406540 0.139026 13.712651 5.441435 72.164534 -179.594852 46.945031 -179.079924 0.000000 0.000000 0.000000 
-0.559016 5.344790 9.842476 0.000000 0.000000 0.000000 -87.852516 -2.628210 1.138681 -28.624126 18.246441 -8.456377 38.613382 -3.231584 -4.794990 -2.480841 5.733690 13.871015 8.519537 -0.384905 3.053641 0.000000 0.000000 0.000000 -90.071180 -2.428275 -1.047997 -10.275057 -6.400901 -4.434528 9.162512 -1.993405 3.402423 13.935842 -1.815200 18.758285 -3.945161 -1.122590 -0.849397 0.000000 0.000000 0.000000 -86.048410 -3.274470 -1.468189 3.626432 2.589541 -2.310159 -1.417420 1.051260 -0.281163 0.525727 1.038090 -0.435028 0.000000 0.000000 0.000000 -2.462102 0.492246 0.099041 2.503283 1.396606 0.173657 7.531284 0.452264 12.670622 0.000000 0.000000 0.000000 -2.989597 1.149779 0.046590 1.154034 -15.876657 -2.452932 -3.158130 0.268384 -4.108844 28.934163 0.935848 -71.041180 -178.801307 -39.379046 -178.444361 0.000000 0.000000 0.000000 -2.090267 0.820531 -0.859135 1.364835 2.650723 0.280647 1.142208 4.398119 0.143287 13.638762 5.449892 72.224838 -179.597693 46.958244 -179.080033 0.000000 0.000000 0.000000 
-0.556291 5.344030 9.853256 0.000000 0.000000 0.000000 -87.854422 -2.612254 1.145178 -28.653514 18.256324 -8.455090 38.699333 -3.233187 -4.826399 -2.531358 5.686190 13.924246 8.516264 -0.386680 3.059936 0.000000 0.000000 0.000000 -90.076658 -2.409770 -1.037647 -10.262718 -6.399430 -4.453883 9.204540 -1.983613 3.414885 13.900225 -1.799612 18.798241 -3.902590 -1.122394 -0.849837 0.000000 0.000000 0.000000 -86.055336 -3.269041 -1.462584 3.639227 2.591305 -2.297866 -1.418047 1.055692 -0.280706 0.523934 1.033130 -0.442485 0.000000 0.000000 0.000000 -2.461901 0.501003 0.098668 2.515376 1.404416 0.183786 7.579963 0.046367 12.697828 0.000000 0.000000 0.000000 -2.984955 1.155821 0.053227 1.151555 -15.875409 -2.484587 -3.134663 0.281321 -4.095372 28.829443 0.973138 -71.026618 -178.793206 -39.337611 -178.426698 0.000000 0.000000 0.000000 -2.098449 0.821160 -0.858329 1.366164 2.673868 0.280438 1.126986 4.391962 0.144115 13.572641 5.473011 72.279452 -179.604155 46.969312 -179.075375 0.000000 0.000000 0.000000 
-0.553298 5.344339 9.864843 0.000000 0.000000 0.000000 -87.853725 -2.597634 1.149752 -28.683321 18.266217 -8.459193 38.780650 -3.243830 -4.851263 -2.570811 5.631346 13.964647 8.515110 -0.388483 3.067878 0.000000 0.000000 0.000000 -90.079342 -2.392002 -1.029110 -10.238319 -6.396666 -4.474015 9.220924 -1.975616 3.425851 13.866186 -1.782287 18.844524 -3.868880 -1.123609 -0.848108 0.000000 0.000000 0.000000 -86.059776 -3.263495 -1.455283 3.654227 2.597088 -2.289284 -1.416326 1.064304 -0.278166 0.517942 1.022399 -0.446798 0.000000 0.000000 0.000000 -2.458562 0.512499 0.098327 2.509692 1.399277 0.205073 7.623849 -0.310882 12.723038 0.000000 0.000000 0.000000 -2.977346 1.164584 0.058347 1.149996 -15.873192 -2.527075 -3.108463 0.289959 -4.073261 28.730002 0.958868 -71.001333 -178.790078 -39.399584 -178.417969 0.000000 0.000000 0.000000 -2.099718 0.826725 -0.857172 1.366342 2.673762 0.272470 1.112727 4.384575 0.148594 13.515341 5.492962 72.315516 -179.611381 46.955631 -179.070758 0.000000 0.000000 0.000000 
-0.549972 5.344929 9.876533 0.000000 0.000000 0.000000 -87.851034 -2.587312 1.152559 -28.715259 18.274106 -8.467528 38.860775 -3.263443 -4.868186 -2.594944 5.569616 13.990748 8.517393 -0.390202 3.075359 0.000000 0.000000 0.000000 -90.079813 -2.377136 -1.021543 -10.209842 -6.394383 -4.497221 9.223025 -1.971726 3.435312 13.828361 -1.768053 18.894236 -3.837678 -1.126621 -0.843185 0.000000 0.000000 0.000000 -86.061907 -3.259524 -1.446059 3.671885 2.605553 -2.286443 -1.411819 1.076601 -0.274012 0.511952 1.009723 -0.452049 0.000000 0.000000 0.000000 -2.452989 0.525787 0.098597 2.489531 1.378977 0.233296 7.662377 -0.636539 12.753982 0.000000 0.000000 0.000000 -2.968279 1.174461 0.061457 1.150681 -15.862624 -2.571324 -3.086170 0.292820 -4.051691 28.657510 0.912047 -70.970050 -178.789996 -39.550702 -178.413762 0.000000 0.000000 0.000000 -2.095903 0.835813 -0.855560 1.365944 2.655665 0.252130 1.102121 4.382409 0.159278 13.472092 5.493767 72.331642 -179.619304 46.915244 -179.066988 0.000000 0.000000 0.000000 
-0.546454 5.345472 9.887496 0.000000 0.000000 0.000000 -87.847824 -2.582671 1.153880 -28.754799 18.279463 -8.479029 38.945991 -3.286424 -4.877185 -2.606326 5.503703 14.006515 8.525136 -0.391312 3.079706 0.000000 0.000000 0.000000 -90.076466 -2.365042 -1.012633 -10.184528 -6.393513 -4.523782 9.223742 -1.972535 3.442471 13.780348 -1.759161 18.947751 -3.804429 -1.131467 -0.836209 0.000000 0.000000 0.000000 -86.062439 -3.256855 -1.435804 3.691066 2.615497 -2.288542 -1.405663 1.090364 -0.268437 0.506865 1.003217 -0.450696 0.000000 0.000000 0.000000 -2.446777 0.538562 0.099841 2.457939 1.346073 0.261729 7.696196 -0.934016 12.790119 0.000000 0.000000 0.000000 -2.959118 1.183971 0.063908 1.153824 -15.840699 -2.609478 -3.079072 0.292343 -4.042457 28.611546 0.869289 -70.944048 -178.789559 -39.727727 -178.405634 0.000000 0.000000 0.000000 -2.090088 0.846072 -0.852334 1.365656 2.629514 0.222182 1.099177 4.392797 0.174422 13.441407 5.474667 72.340665 -179.629536 46.864913 -179.061100 0.000000 0.000000 0.000000 
-0.542807 5.345577 9.897328 0.000000 0.000000 0.000000 -87.844381 -2.581641 1.154717 -28.803078 18.283786 -8.492085 39.042106 -3.309720 -4.880626 -2.611733 5.435891 14.015895 8.534140 -0.391759 3.080922 0.000000 0.000000 0.000000 -90.071118 -2.356275 -1.003770 -10.168713 -6.393747 -4.550525 9.229437 -1.977583 3.446464 13.721692 -1.755486 19.005560 -3.769201 -1.137035 -0.829687 0.000000 0.000000 0.000000 -86.061196 -3.256022 -1.425948 3.712232 2.625995 -2.291971 -1.399367 1.103271 -0.262073 0.505249 1.003393 -0.448527 0.000000 0.000000 0.000000 -2.441804 0.549364 0.102460 2.421412 1.305996 0.284088 7.725807 -1.204090 12.826953 0.000000 0.000000 0.000000 -2.953215 1.191044 0.066869 1.158801 -15.800847 -2.633765 -3.075532 0.290552 -4.053524 28.571523 0.856245 -70.924404 -178.787660 -39.859393 -178.390867 0.000000 0.000000 0.000000 -2.085950 0.855518 -0.847114 1.366457 2.605133 0.186841 1.100292 4.415196 0.198256 13.424399 5.441810 72.359379 -179.642171 46.830598 -179.052822 0.000000 0.000000 0.000000 
-0.539053 5.345358 9.906512 0.000000 0.000000 0.000000 -87.841246 -2.580742 1.157266 -28.857925 18.288262 -8.505212 39.148640 -3.328293 -4.881914 -2.620971 5.368964 14.023750 8.538781 -0.391464 3.080099 0.000000 0.000000 0.000000 -90.065361 -2.350244 -0.994805 -10.162956 -6.391087 -4.574516 9.238508 -1.982368 3.447427 13.654900 -1.753927 19.071329 -3.737255 -1.141820 -0.826894 0.000000 0.000000 0.000000 -86.058772 -3.256767 -1.417800 3.735480 2.636485 -2.294141 -1.394859 1.112920 -0.256149 0.506045 1.006836 -0.448323 0.000000 0.000000 0.000000 -2.440326 0.556583 0.106419 2.383285 1.265525 0.297290 7.749480 -1.437762 12.856918 0.000000 0.000000 0.000000 -2.952617 1.195386 0.071314 1.164146 -15.746591 -2.645617 -3.065704 0.292458 -4.074870 28.521053 0.880317 -70.913169 -178.788411 -39.898232 -178.375158 0.000000 0.000000 0.000000 -2.085860 0.861946 -0.840803 1.368461 2.589998 0.155183 1.103814 4.451306 0.219255 13.413100 5.400470 72.399623 -179.658373 46.822914 -179.042754 0.000000 0.000000 0.000000 
-0.535658 5.345179 9.914903 0.000000 0.000000 0.000000 -87.839019 -2.577795 1.162921 -28.916535 18.293349 -8.516805 39.259862 -3.340276 -4.882736 -2.640936 5.305646 14.032950 8.538025 -0.390748 3.079394 0.000000 0.000000 0.000000 -90.058756 -2.345751 -0.986153 -10.165013 -6.382732 -4.592763 9.249762 -1.983959 3.445175 13.585041 -1.751071 19.144578 -3.710198 -1.144902 -0.829390 0.000000 0.000000 0.000000 -86.056764 -3.257129 -1.410953 3.760388 2.646863 -2.293750 -1.393491 1.118528 -0.251749 0.503784 1.013227 -0.443146 0.000000 0.000000 0.000000 -2.442953 0.560085 0.110409 2.346157 1.229458 0.301396 7.766440 -1.626501 12.872516 0.000000 0.000000 0.000000 -2.956537 1.196788 0.076311 1.169343 -15.689069 -2.647726 -3.042740 0.294942 -4.097934 28.459131 0.927333 -70.907855 -178.792701 -39.849475 -178.361675 0.000000 0.000000 0.000000 -2.090763 0.865277 -0.834283 1.370956 2.585292 0.130428 1.106425 4.484765 0.232564 13.393541 5.355556 72.461409 -179.676391 46.830031 -179.034011 0.000000 0.000000 0.000000 
